<?xml version="1.0" encoding="utf-8"?>
<!-- Generator: Adobe Illustrator 24.3.0, SVG Export Plug-In . SVG Version: 6.00 Build 0)  -->
<svg version="1.1" xmlns="http://www.w3.org/2000/svg" xmlns:xlink="http://www.w3.org/1999/xlink" x="0px" y="0px"
	 viewBox="0 0 1000 1000" style="enable-background:new 0 0 1000 1000;" xml:space="preserve">
<style type="text/css">
	.st0{display:none;}
	.st1{display:inline;}
	.st2{fill:#811B1F;}
	.st3{display:inline;fill:#FFD700;}
	.st4{fill:#FFFFFF;}
	.st5{fill:#FFD700;}
	.st6{fill:#811B1F;stroke:#FFD700;stroke-width:4;stroke-miterlimit:10;}
	.st7{fill:none;stroke:#FFD700;stroke-width:3;stroke-miterlimit:10;}
	.st8{fill:#FF0000;}
	.st9{fill:none;stroke:#FFD700;stroke-width:2;stroke-miterlimit:10;}
</style>
<g id="color-space" class="st0">
	<g class="st1">
		<rect x="332.1" y="-131.3" class="st2" width="113.3" height="113.3"/>
	</g>
	<rect x="465" y="-131.3" class="st3" width="113.3" height="113.3"/>
	<g class="st1">
		<rect x="66.5" y="-131.3" width="113.3" height="113.3"/>
	</g>
	<g class="st1">
		<rect x="199.3" y="-131.3" class="st4" width="113.3" height="113.3"/>
	</g>
</g>
<g id="logo">
	<g id="outter-bg_2_">
		<path class="st5" d="M482.5,923.7c-4.6-11.8-10.9-22.7-18.7-32.5c-0.1-0.1-10.5-12.9-23.5-22.6c-17.9-13.3-38.1-18.2-63.6-24.3
			c-12.2-2.9-26.1-6.3-40.8-10.9c-30.8-9.7-76.6-28.8-120.2-64.5c-19.3-15.8-36.9-33.9-50.9-52.4l-0.5-0.6
			c-11.9-15.7-28.2-37.3-38.4-68.7c-15.9-49.1-8.2-90.5-4.6-110.4c2.8-15.1,5.4-21.7,10.2-33.8c3.7-9.2,8.7-21.9,16.7-45.6
			c16.7-49.2,24.1-72.1,26.9-99.6c2-20.1,4.6-45.1-3.7-74.9c-8.1-29.3-24.9-56.4-48.7-78.6l-13-12.2L245.4,29.9l14.4,17.1
			c0.5,0.6,47.9,55.9,116,55.9c7.3,0,14.8-0.6,22.1-1.9c47.1-8.2,76.7-40.2,87.2-53.5L500,28.8l14.8,18.8
			c10.5,13.4,40.1,45.3,87.2,53.5c7.3,1.3,14.8,1.9,22.1,1.9c68.2,0,115.6-55.4,116.1-55.9l14.4-17.1L890.4,192l-13,12.2
			c-23.7,22.2-40.6,49.3-48.7,78.6c-8.3,29.8-5.7,54.8-3.7,74.9c2.8,27.5,10.3,50.4,26.9,99.6c8.1,23.8,13.1,36.4,16.7,45.6
			c4.8,12,7.4,18.6,10.2,33.8c3.7,19.9,11.3,61.4-4.6,110.4c-10.1,31.4-26.5,52.9-38.4,68.7l-0.5,0.6c-14,18.5-31.6,36.6-50.9,52.4
			c-43.6,35.7-89.5,54.8-120.2,64.5c-14.7,4.6-28.5,8-40.8,10.9c-25.6,6.2-45.8,11-63.7,24.3c-13.1,9.8-23.4,22.5-23.6,22.7
			c-7.8,9.8-14.1,20.7-18.7,32.5L500,968.4L482.5,923.7z"/>
		<path class="st2" d="M500,32.8l12.8,16.3c10.7,13.6,40.8,46.1,88.8,54.4c7.5,1.3,15,2,22.5,2c69.4,0,117.5-56.2,118-56.8
			l12.5-14.9l132.3,158l-11.3,10.6c-24.1,22.5-41.2,50.1-49.4,79.8c-8.4,30.2-5.8,55.5-3.8,75.8c2.8,27.8,10.3,50.8,27,100.1
			c8.1,23.8,13.1,36.5,16.8,45.7c4.7,11.9,7.3,18.4,10.1,33.3c3.6,19.7,11.2,60.8-4.5,109.2c-10,31-26.2,52.3-38,67.9l-0.5,0.6
			c-13.9,18.3-31.4,36.3-50.5,52c-43.3,35.4-88.8,54.4-119.4,64c-14.6,4.6-28.4,7.9-40.6,10.9c-25.8,6.2-46.3,11.1-64.6,24.8
			c-13.3,9.9-23.6,22.6-24,23.1c-8,10-14.4,21.1-19.1,33.1L500,961.6l-15.2-38.8c-4.7-12-11.1-23.2-19.1-33.2
			c-0.1-0.1-10.6-13.1-24-23.1c-18.3-13.6-38.7-18.5-64.6-24.8c-12.2-2.9-26-6.3-40.6-10.9c-30.6-9.7-76.1-28.6-119.4-64
			c-19.2-15.7-36.6-33.7-50.5-52l-0.5-0.6c-11.8-15.6-28-37-38-67.9c-15.7-48.5-8.1-89.5-4.5-109.2c2.7-14.9,5.3-21.4,10.1-33.3
			c3.7-9.3,8.7-21.9,16.8-45.7c16.7-49.4,24.2-72.3,27-100.1c2-20.3,4.6-45.6-3.8-75.8c-8.2-29.7-25.3-57.3-49.4-79.8l-11.3-10.6
			l132.3-158l12.5,14.9c0.5,0.6,48.6,56.8,118,56.8c7.5,0,15.1-0.7,22.5-2c48-8.4,78.1-40.8,88.8-54.4L500,32.8 M500,24.7L483.3,46
			c-10.3,13.1-39.4,44.5-85.7,52.6c-7.2,1.2-14.5,1.9-21.7,1.9c0,0,0,0,0,0c-67,0-113.7-54.5-114.1-55L245.4,26L106.2,192.2
			l14.8,13.8c23.4,21.8,40,48.6,48,77.4c8.1,29.3,5.6,54.1,3.6,74c-2.7,27.2-10.2,50-26.8,99c-8,23.7-13,36.3-16.7,45.5
			c-4.8,12.2-7.5,18.9-10.3,34.2c-3.7,20.1-11.4,62,4.6,111.7c10.3,31.8,26.7,53.5,38.8,69.4l0.5,0.6c14.1,18.6,31.9,36.9,51.3,52.9
			c43.9,35.9,90.1,55.2,121.1,64.9c14.8,4.7,28.7,8,41,11c25.3,6.1,45.3,10.9,62.7,23.9c12.9,9.6,23,22.1,23.1,22.2
			c7.7,9.6,13.8,20.3,18.4,31.9l19.9,50.6l19.8-50.6c4.5-11.5,10.7-22.2,18.3-31.8c0.1-0.1,10.2-12.6,23.1-22.2
			c17.5-13,37.5-17.8,62.7-23.9c12.3-3,26.2-6.3,41-11c31-9.8,77.1-29,121.1-64.9c19.5-15.9,37.2-34.2,51.3-52.9l0.5-0.6
			c12-15.9,28.5-37.6,38.8-69.4c16-49.7,8.3-91.5,4.6-111.7c-2.8-15.4-5.5-22.1-10.3-34.2c-3.7-9.2-8.7-21.8-16.7-45.5
			c-16.6-49-24-71.8-26.8-99c-2-19.9-4.5-44.7,3.6-74c8-28.8,24.6-55.6,48-77.4l14.8-13.8L754.6,26l-16.4,19.4
			c-0.5,0.6-47.1,55-114.1,55c-7.2,0-14.5-0.6-21.7-1.9c-46.3-8.1-75.4-39.5-85.7-52.6L500,24.7L500,24.7z"/>
	</g>
	<g>
		<g>
			<path d="M246,75.7c18.9,18.4,66.2,57.1,129.9,57.1c9,0,18.2-0.8,27.2-2.4c46.7-8.1,78.7-34.3,96.9-54.3
				c18.3,19.9,50.2,46.1,96.9,54.3c9,1.6,18.2,2.4,27.2,2.4c63.8,0,111-38.7,129.9-57.1l95.5,114c-23.8,24.5-40.9,53.8-49.6,85.1
				c-9.8,35.2-6.8,64.5-4.6,85.9c3.2,32,12.1,58.3,28.3,106.1c8.3,24.5,13.7,38.1,17.3,47.1c4.5,11.2,6.3,15.9,8.6,28.1
				c3.2,17.5,9.9,54-3.6,95.9c-8.6,26.6-22.6,45-33.8,59.8l-0.5,0.6c-12.6,16.6-28.5,33-46,47.4c-39.9,32.7-82,50.2-110.3,59.1
				c-13.7,4.3-26.5,7.4-38.8,10.4c-27.7,6.7-51.7,12.4-74.5,29.4c-16.4,12.2-28.5,27.3-29,28c-4.8,6-9.1,12.3-13,19
				c-3.8-6.6-8.2-13-13-19c-0.5-0.6-12.6-15.8-29-28c-22.8-17-46.8-22.7-74.5-29.4c-12.3-3-25.1-6-38.8-10.4
				c-28.3-8.9-70.4-26.4-110.3-59.1c-17.5-14.3-33.4-30.7-46-47.4l-0.5-0.6c-11.2-14.8-25.2-33.3-33.8-59.8
				c-13.5-41.9-6.8-78.3-3.6-95.9c2.3-12.2,4.1-16.9,8.6-28.1c3.6-9,9-22.6,17.3-47.1c16.2-47.8,25.1-74.1,28.3-106.1
				c2.2-21.4,5.1-50.7-4.6-85.9c-8.7-31.4-25.8-60.6-49.6-85.1L246,75.7 M754.6,59.2c-2.8,3.3-54.5,62.6-130.4,62.6
				c-8.2,0-16.6-0.7-25.3-2.2c-56.7-9.9-89.8-49-98.8-60.4c-9,11.4-42.1,50.5-98.8,60.4c-8.7,1.5-17.2,2.2-25.3,2.2
				c-76,0-127.7-59.3-130.4-62.6L135.5,190.4c15.3,14.3,41.7,43.2,54,87.3c9.2,33.2,6.4,60.8,4.3,81.8c-3,30.2-11.3,55.1-27.8,103.7
				c-18.5,54.6-21.9,52.9-26.3,76.7c-3.8,20.4-10.2,57.6,4,101.2c9.3,28.7,24.1,48.1,35.9,63.7c6.2,8.2,21.9,28,47.8,49.2
				c45.2,37,92.1,54.2,114,61.1c44.4,14,79.3,15.2,110,38.1c15.4,11.5,27,26,27,26c11.3,14.1,17.8,27.8,21.5,37.4
				c3.7-9.6,10.3-23.2,21.5-37.4c0,0,11.6-14.5,27-26c30.7-22.9,65.6-24.1,110-38.1c21.8-6.9,68.7-24.1,114-61.1
				c25.9-21.2,41.7-41.1,47.8-49.2c11.8-15.6,26.7-35,35.9-63.7c14.1-43.6,7.7-80.8,4-101.2c-4.4-23.9-7.8-22.1-26.3-76.7
				c-16.5-48.6-24.8-73.5-27.8-103.7c-2.1-21.1-4.9-48.6,4.3-81.8c12.2-44.2,38.7-73.1,54-87.3L754.6,59.2L754.6,59.2z"/>
		</g>
	</g>
	<g>
		
			<ellipse transform="matrix(0.7071 -0.7071 0.7071 0.7071 -162.4825 481.5127)" class="st4" cx="500" cy="436.9" rx="104.6" ry="104.6"/>
		<g>
			<path class="st2" d="M500,334.3c56.6,0,102.6,46,102.6,102.6s-46,102.6-102.6,102.6s-102.6-46-102.6-102.6S443.4,334.3,500,334.3
				 M500,330.3c-58.9,0-106.6,47.7-106.6,106.6S441.1,543.5,500,543.5s106.6-47.7,106.6-106.6S558.9,330.3,500,330.3L500,330.3z"/>
		</g>
	</g>
	<g id="top_banner">
		<g>
			<g>
				<path class="st2" d="M584.1,166.9c21.2,6.8,42,16.2,61.6,28.1c35.6,21.4,65.2,49.3,88,82.9c18.7,27.5,32.4,58.1,40.5,90.9
					c4.4,17.9,7.2,36.2,8.1,54.4c-6.4-5-12.8-9.9-19.1-14.9c-8.6-6.7-17.3-13.4-25.9-20.1l-2.7-2.1l-2.5,2.3l-21.5,20l-15.5,14.4
					c-1.8-23.3-9-60.9-34.5-97.6c-26.2-37.7-59.6-57.8-82.9-67.9l-3.7-1.6l-1.6,3.7l-6.2,14.4c-9.9-4-20.1-7.1-30.5-9.3
					c-11.7-2.4-23.6-3.6-35.5-3.6l-0.2,0l-0.2,0c-11.9,0-23.9,1.2-35.5,3.6c-10.4,2.2-20.7,5.3-30.5,9.3l-6.2-14.4l-1.6-3.7
					l-3.7,1.6c-23.3,10.1-56.7,30.1-82.9,67.9c-25.5,36.7-32.7,74.3-34.5,97.6l-15.5-14.4l-21.5-20l-2.5-2.3l-2.7,2.1
					c-8.6,6.7-17.3,13.4-25.9,20.1c-6.4,4.9-12.7,9.9-19.1,14.8c1-18.2,3.7-36.5,8.1-54.4c8.1-32.8,21.7-63.3,40.5-90.9
					c22.9-33.6,52.5-61.5,88-82.9c19.7-11.9,40.4-21.3,61.6-28.1c0.5,1.8,1.1,3.7,1.6,5.5c0.9,3.1,1.9,6.3,2.8,9.4l1.1,3.8l3.8-1.1
					c13.7-4.1,27.6-7,41.2-8.7c10.8-1.4,21.7-2.1,32.4-2.1l1.1,0l1,0c10.8,0,21.7,0.7,32.4,2.1c13.7,1.7,27.6,4.7,41.2,8.7l3.8,1.1
					l1.1-3.8c0.9-3.1,1.9-6.3,2.8-9.4C583,170.6,583.6,168.8,584.1,166.9 M581.4,161.9c-1.9,6.3-3.7,12.6-5.6,18.8
					c-11.8-3.5-25.9-6.8-41.9-8.9c-12-1.5-23.1-2.1-32.9-2.1c-0.4,0-0.7,0-1.1,0c-0.3,0-0.7,0-1.1,0c-9.9,0-20.9,0.6-32.9,2.1
					c-16,2-30,5.3-41.9,8.9c-1.9-6.3-3.7-12.6-5.6-18.8c-23.7,7.2-101.4,34-155.7,113.7c-43.9,64.6-49,129.3-49.6,156
					c17.3-13.4,34.6-26.8,51.8-40.2c14.4,13.4,28.9,26.8,43.3,40.2c0.5-17.1,4-60.7,34.2-104.1c28.6-41.1,65.4-59.6,81.2-66.5
					c2.6,6,5.2,12,7.8,18c8.8-3.8,20-7.8,33.4-10.6c13.3-2.8,25.2-3.5,34.7-3.5c0.1,0,0.1,0,0.2,0c0.1,0,0.1,0,0.2,0
					c9.5,0,21.4,0.8,34.7,3.5c13.4,2.8,24.7,6.8,33.4,10.6c2.6-6,5.2-12,7.8-18c15.8,6.9,52.6,25.4,81.2,66.5
					c30.2,43.4,33.7,86.9,34.2,104.1c14.4-13.4,28.9-26.8,43.3-40.2c17.3,13.4,34.6,26.8,51.8,40.2c-0.6-26.7-5.6-91.4-49.6-156
					C682.8,195.9,605.2,169.1,581.4,161.9L581.4,161.9z"/>
			</g>
		</g>
		<g>
			<path class="st2" d="M425.1,247.9c-1.9,0.8-3.8,1.7-5.7,2.5c-24.2,10.5-58.8,31.3-86,70.5c-21.6,31-30.5,62.7-34.1,86.5l-33.4-31
				c0,0-37.5,29.1-39.5,30.6c3.9-35.5,15.7-80.6,46-125.1C315.4,218.5,374,189.2,411,176.2c-1.8,7.6-3.5,15.2-5.3,22.9
				C412.1,215.4,418.6,231.7,425.1,247.9z"/>
		</g>
		<g>
			<path class="st2" d="M574.9,247.9c1.9,0.8,3.8,1.7,5.7,2.5c24.2,10.5,58.8,31.3,86,70.5c21.6,31,30.5,62.7,34.1,86.5l33.4-31
				c0,0,37.5,29.1,39.5,30.6c-3.9-35.5-15.7-80.6-46-125.1C684.6,218.5,626,189.2,589,176.2c1.8,7.6,3.5,15.2,5.3,22.9
				C587.9,215.4,581.4,231.7,574.9,247.9z"/>
		</g>
		<g>
			<path class="st2" d="M532.6,183.1c-11.4-1.4-22-2-31.5-2c-0.3,0-0.7,0-1,0c0,0,0,0,0,0c-0.3,0-0.7,0-1,0c-9.6,0-20.1,0.5-31.5,2
				c-21.8,2.8-40.4,8.1-55.3,13.6c8.5,22.5,17,45.1,25.6,67.6c7.3-2.6,15.7-5.1,25.1-7.1c14-2.9,26.6-3.8,37-3.8c0.1,0,0.1,0,0.2,0
				c0-12.1,0-24.1,0-36.2c0,12.1,0,24.1,0,36.2c0.1,0,0.1,0,0.2,0c10.4,0,23,0.9,37,3.8c9.4,1.9,17.8,4.5,25.1,7.1
				c8.5-22.5,17-45.1,25.6-67.6C573,191.1,554.4,185.8,532.6,183.1z"/>
		</g>
	</g>
	<g id="bottom_banner">
		<g>
			<g>
				<path class="st2" d="M782.4,450.6c-1,18.2-3.7,36.5-8.1,54.4c-8.1,32.8-21.7,63.3-40.5,90.9c-22.9,33.6-52.5,61.5-88,82.9
					c-19.7,11.9-40.4,21.3-61.6,28.1c-0.5-1.8-1.1-3.7-1.6-5.5c-0.9-3.1-1.9-6.3-2.8-9.4l-1.1-3.8l-3.8,1.1
					c-13.7,4.1-27.6,7-41.2,8.7c-10.8,1.4-21.7,2.1-32.4,2.1l-1.1,0l-1,0c-10.8,0-21.7-0.7-32.4-2.1c-13.7-1.7-27.6-4.7-41.2-8.7
					l-3.8-1.1l-1.1,3.8c-0.9,3.1-1.9,6.3-2.8,9.4c-0.5,1.8-1.1,3.7-1.6,5.5c-21.2-6.8-42-16.2-61.6-28.1
					c-35.6-21.4-65.2-49.3-88-82.9c-18.7-27.5-32.4-58.1-40.5-90.9c-4.4-17.9-7.2-36.2-8.1-54.4c6.4,5,12.8,9.9,19.1,14.9
					c8.6,6.7,17.3,13.4,25.9,20.1l2.7,2.1l2.5-2.3l21.6-20.1l15.4-14.3c1.8,23.3,9,60.9,34.5,97.6c26.2,37.7,59.6,57.8,82.9,67.9
					l3.7,1.6l1.6-3.7l3.5-8.1l2.7-6.3c9.9,4,20.1,7.1,30.5,9.3c11.7,2.4,23.6,3.6,35.5,3.6l0.2,0l0.2,0c11.9,0,23.9-1.2,35.5-3.6
					c10.4-2.2,20.7-5.3,30.5-9.3l6.2,14.4l1.6,3.7l3.7-1.6c23.3-10.1,56.7-30.1,82.9-67.9c25.5-36.7,32.7-74.3,34.5-97.6l15.3,14.2
					l21.7,20.2l2.5,2.3l2.7-2.1c8.6-6.7,17.3-13.4,25.9-20.1C769.6,460.5,776,455.6,782.4,450.6 M786.7,442.2
					c-17.3,13.4-34.6,26.8-51.8,40.2c-14.4-13.4-28.9-26.8-43.3-40.2c-0.5,17.1-4,60.7-34.2,104.1c-28.6,41.1-65.4,59.6-81.2,66.5
					c-2.6-6-5.2-12-7.8-18c-8.8,3.8-20,7.8-33.4,10.6c-13.3,2.8-25.2,3.5-34.7,3.5c-0.1,0-0.1,0-0.2,0c-0.1,0-0.1,0-0.2,0
					c-9.5,0-21.4-0.8-34.7-3.5c-13.4-2.8-24.7-6.8-33.4-10.6c-2.6,6-5.2,12-7.8,18c-15.9-6.9-52.6-25.4-81.2-66.5
					c-30.2-43.4-33.7-86.9-34.2-104.1c-14.4,13.4-28.9,26.8-43.3,40.2c-17.3-13.4-34.6-26.8-51.8-40.2c0.6,26.7,5.6,91.4,49.6,156
					c54.3,79.7,131.9,106.5,155.7,113.7c1.9-6.3,3.7-12.6,5.6-18.8c11.8,3.5,25.9,6.8,41.9,8.9c12,1.5,23.1,2.1,32.9,2.1
					c0.4,0,0.7,0,1.1,0c0.3,0,0.7,0,1.1,0c9.9,0,20.9-0.6,32.9-2.1c16-2,30-5.3,41.9-8.9c1.9,6.3,3.7,12.6,5.6,18.8
					c23.7-7.2,101.4-34,155.7-113.7C781,533.6,786.1,468.9,786.7,442.2L786.7,442.2z"/>
			</g>
		</g>
		<g>
			<path class="st2" d="M425,625.7c-1.9-0.8-3.8-1.7-5.7-2.5c-24.2-10.5-58.8-31.3-86-70.5c-21.6-31-30.5-62.7-34.1-86.5l-33.4,31
				c0,0-37.5-29.1-39.5-30.6c3.9,35.5,15.7,80.6,46,125.1C315.4,655.1,374,684.5,411,697.4c-1.8-7.6-3.5-15.2-5.3-22.9
				C412.1,658.3,418.6,642,425,625.7z"/>
		</g>
		<g>
			<path class="st2" d="M574.9,625.7c1.9-0.8,3.8-1.7,5.7-2.5c24.2-10.5,58.8-31.3,86-70.5c21.6-31,30.5-62.7,34.1-86.5l33.4,31
				c0,0,37.5-29.1,39.5-30.6c-3.9,35.5-15.7,80.6-46,125.1C684.5,655.1,626,684.5,589,697.4c1.8-7.6,3.5-15.2,5.3-22.9
				C587.8,658.3,581.4,642,574.9,625.7z"/>
		</g>
		<g>
			<path class="st2" d="M532.6,690.6c-11.4,1.4-22,2-31.5,2c-0.3,0-0.7,0-1,0c0,0,0,0,0,0c-0.3,0-0.7,0-1,0c-9.6,0-20.1-0.5-31.5-2
				c-21.8-2.8-40.4-8.1-55.3-13.6c8.5-22.5,17-45.1,25.6-67.6c7.3,2.6,15.7,5.1,25.1,7.1c14,2.9,26.6,3.8,37,3.8c0.1,0,0.1,0,0.2,0
				c0,12.1,0,24.1,0,36.2c0-12.1,0-24.1,0-36.2c0.1,0,0.1,0,0.2,0c10.4,0,23-0.9,37-3.8c9.4-1.9,17.8-4.5,25.1-7.1
				c8.5,22.5,17,45.1,25.6,67.6C573,682.5,554.4,687.8,532.6,690.6z"/>
		</g>
	</g>
	<g id="light_1_">
		<path class="st6" d="M500,436.9c7.3-2.4,20.5-5.5,36.8-3.4c21.6,2.8,36.2,13.3,42.5,18.3c-4.1,43.6-40,76-79.3,76.1
			c-39.3-0.1-75.2-32.5-79.3-76.1c6.2-5,20.9-15.5,42.5-18.3C479.5,431.4,492.7,434.5,500,436.9z"/>
		<path class="st7" d="M579.4,451.9c-5,2.5-22.1,10.2-43.9,5.6c-19.7-4.2-31.6-16.2-35.5-20.5c-3.9,4.4-15.9,16.3-35.5,20.5
			c-21.7,4.7-38.8-3.1-43.9-5.6"/>
		<path class="st7" d="M572.7,477.9c-6.6,2-20.3,5.2-37.1,1.9c-18.3-3.6-30.4-13.1-35.5-17.6c-5.2,4.6-17.2,14-35.5,17.6
			c-16.8,3.4-30.6,0.1-37.1-1.9"/>
		<path class="st7" d="M547.7,510.7c-3.8-4.7-11.5-13-23.9-18.7c-9.5-4.4-18.1-5.6-23.7-5.9c-5.6,0.3-14.2,1.5-23.7,5.9
			c-12.4,5.7-20.1,13.9-23.9,18.7"/>
		<path class="st7" d="M531.6,520.7c-2.1-3-6.1-7.9-12.7-11.9c-7.8-4.6-15.2-5.5-18.9-5.7c-3.7,0.2-11.1,1.1-18.9,5.7
			c-6.6,4-10.6,8.9-12.7,11.9"/>
		<path class="st8" d="M514.5,347.3c-4.7,1.6-15.9,6-24.3,17.4c-12.5,17-9,36.1-8.3,40.2c3.2,17.7,14.2,28.4,18.1,31.9
			c3.3-3.4,8.2-9.3,11.3-17.8c3.2-8.6,3-16,2.9-21.6c-0.4-14.4-4.5-18.2-4.3-30.1C510.2,359,512.5,352,514.5,347.3z"/>
		<line class="st9" x1="487.1" y1="447.9" x2="500" y2="461.4"/>
		<line class="st9" x1="478.5" y1="452.7" x2="494.4" y2="466.4"/>
		<line class="st9" x1="469.2" y1="456.2" x2="487.7" y2="470.9"/>
		<line class="st9" x1="459.4" y1="458.3" x2="479.9" y2="474.9"/>
		<line class="st9" x1="448.9" y1="459.1" x2="468.4" y2="478.9"/>
		<line class="st9" x1="436.1" y1="457.3" x2="456.4" y2="480.9"/>
		<line class="st9" x1="512.9" y1="448.4" x2="500" y2="461.9"/>
		<line class="st9" x1="521.5" y1="453.2" x2="505.6" y2="466.8"/>
		<line class="st9" x1="530.8" y1="456.7" x2="512.3" y2="471.4"/>
		<line class="st9" x1="540.6" y1="458.8" x2="520.1" y2="475.4"/>
		<line class="st9" x1="551.1" y1="459.6" x2="531.6" y2="479.3"/>
		<line class="st9" x1="500" y1="462.1" x2="500" y2="486.1"/>
		<line class="st9" x1="442.4" y1="480.4" x2="453.6" y2="510.7"/>
		<line class="st9" x1="557.8" y1="479.6" x2="546.5" y2="509.9"/>
		<line class="st9" x1="462.1" y1="500.9" x2="442.4" y2="480.4"/>
		<line class="st9" x1="455.3" y1="479.6" x2="462.1" y2="500.9"/>
		<line class="st9" x1="471.4" y1="494.5" x2="455.3" y2="479.6"/>
		<line class="st9" x1="466.9" y1="477.4" x2="471.4" y2="494.5"/>
		<line class="st9" x1="480.9" y1="490.1" x2="468.4" y2="478.3"/>
		<line class="st9" x1="479" y1="474.1" x2="480.9" y2="490.1"/>
		<line class="st9" x1="488.5" y1="487.1" x2="479.9" y2="474.1"/>
		<line class="st9" x1="486.4" y1="470.5" x2="488.5" y2="487.1"/>
		<line class="st9" x1="493.5" y1="486.1" x2="486.4" y2="470.5"/>
		<line class="st9" x1="493.5" y1="465.6" x2="493.5" y2="486.1"/>
		<line class="st9" x1="500" y1="486.1" x2="493.5" y2="465.6"/>
		<line class="st9" x1="537.9" y1="500.7" x2="557.6" y2="480.2"/>
		<line class="st9" x1="544.7" y1="480.6" x2="537.9" y2="501.9"/>
		<line class="st9" x1="528.6" y1="494.4" x2="543.9" y2="480.2"/>
		<line class="st9" x1="532.9" y1="478.1" x2="528.3" y2="495.3"/>
		<line class="st9" x1="519.1" y1="490" x2="531.6" y2="478.2"/>
		<line class="st9" x1="521" y1="474" x2="519.1" y2="490"/>
		<line class="st9" x1="511.5" y1="486.9" x2="520" y2="474"/>
		<line class="st9" x1="513.6" y1="470.3" x2="511.5" y2="486.9"/>
		<line class="st9" x1="506.4" y1="486" x2="513.6" y2="470.3"/>
		<line class="st9" x1="506.4" y1="465.5" x2="506.4" y2="486"/>
		<line class="st9" x1="500" y1="486" x2="506.4" y2="465.5"/>
		<line class="st9" x1="452.8" y1="508.5" x2="472.7" y2="515.5"/>
		<line class="st9" x1="462.1" y1="500.9" x2="477.3" y2="511.9"/>
		<line class="st9" x1="471" y1="493.1" x2="482" y2="508.3"/>
		<line class="st9" x1="480.9" y1="489.1" x2="486.4" y2="506"/>
		<line class="st9" x1="488.5" y1="487.1" x2="490.9" y2="504.6"/>
		<line class="st9" x1="493.5" y1="486.1" x2="495.5" y2="503.1"/>
		<line class="st9" x1="546.7" y1="508.4" x2="526.8" y2="515.4"/>
		<line class="st9" x1="537.4" y1="500.8" x2="522.3" y2="511.8"/>
		<line class="st9" x1="528.5" y1="493" x2="517.5" y2="508.2"/>
		<line class="st9" x1="518.6" y1="489" x2="513.1" y2="505.9"/>
		<line class="st9" x1="511" y1="487" x2="508.6" y2="504.6"/>
		<line class="st9" x1="506" y1="486.1" x2="504" y2="503.1"/>
		<line class="st9" x1="500" y1="486.1" x2="500" y2="503.1"/>
		<line class="st9" x1="471.5" y1="515" x2="487.5" y2="526.9"/>
		<line class="st9" x1="476.5" y1="511.3" x2="490.9" y2="527.4"/>
		<line class="st9" x1="482" y1="508.3" x2="493.5" y2="528"/>
		<line class="st9" x1="486.4" y1="506" x2="495.6" y2="527"/>
		<line class="st9" x1="491.8" y1="504.4" x2="497.6" y2="528"/>
		<line class="st9" x1="495.5" y1="503.1" x2="498.7" y2="527.3"/>
		<line class="st9" x1="528.3" y1="516.3" x2="512.3" y2="528.1"/>
		<line class="st9" x1="523.3" y1="512.6" x2="508.9" y2="528.7"/>
		<line class="st9" x1="517.8" y1="509.6" x2="506.3" y2="529.3"/>
		<line class="st9" x1="513.4" y1="507.2" x2="504.2" y2="528.3"/>
		<line class="st9" x1="508" y1="505.7" x2="502.2" y2="529.3"/>
		<line class="st9" x1="504.3" y1="504.4" x2="501.1" y2="528.6"/>
		<line class="st9" x1="500" y1="503.1" x2="500" y2="528"/>
		<line class="st9" x1="564.2" y1="458.1" x2="543.9" y2="481.7"/>
		<line class="st9" x1="577.5" y1="453.7" x2="556.2" y2="481.8"/>
		<line class="st9" x1="421.6" y1="452.2" x2="442.9" y2="480.3"/>
	</g>
	<g>
		<g id="fanindra">
			<path class="st4" d="M293.7,323.6c1.2-2.4,2.5-3.9,3.9-4.6c1.3-0.7,2.6-0.7,3.7-0.1c0.7,0.4,1.2,0.8,1.5,1.4
				c-1.3,0.2-2.2,0.8-2.8,1.8c-0.5,0.9-0.5,1.8-0.2,2.7c0.3,0.9,0.9,1.6,1.8,2.1c1,0.5,1.9,0.6,2.9,0.3c1-0.3,1.7-1,2.2-2
				c0.7-1.4,0.7-2.9,0-4.5c-0.7-1.6-2-2.9-3.9-3.9c-2.6-1.3-5.2-1.4-7.9-0.2c-2.7,1.1-4.9,3.2-6.4,6.3c-0.6,1.2-1.2,2.5-1.6,3.7
				l15.9,8.1c-4,1.2-7.4,2.9-10.2,5.3l-2.1-7.9c-4.9,0.9-8.8,2.3-11.5,4.3l15.6-30.4l-3.7,0.3l-18.6,36.3l3.7-0.3l0.5-1.1l3.5,0.7
				c1.5-2.8,3.8-4.7,6.7-5.8l2.4,9.2l5.5-0.3c3.4-5.5,7.8-8.3,13.2-8.5l4.4-2.5l-18.8-9.6L293.7,323.6z"/>
			<path class="st4" d="M355.4,265.5c-2.7-2.8-4.8-6.6-6.5-11.5l-6.4,1.8c-0.9,4.1-1.3,8.1-1.3,12l-7.2-7.6l15.1-14.3l-3.6-0.9
				c-4.9,4.9-9.9,9.7-14.8,14.6c-3.1,3.1-6.3,6.1-9.5,9.2c-0.5,0.5-6.9,7.6-7,7.6c-3.9-2.1-8-2.7-12.3-1.9c-4.3,0.8-7.9,3-10.8,6.5
				c-2.1,2.5-3.2,4.9-3.4,7.2c-0.2,2.3,0.5,4.1,1.9,5.3c1.4,1.1,2.8,1.6,4.3,1.2c1.5-0.3,2.9-1.3,4.3-2.9c0.5-0.6,1-1.3,1.6-2.1
				c0.4-0.5,0.7-1,1-1.4l9,6.4c-6.2-0.8-10.3,0.1-12.2,2.8c-1.3,1.8-1.6,3.9-0.8,6.1c0.8,2.2,2.2,4.1,4.4,5.7
				c2.4,1.7,4.9,2.5,7.4,2.3c2.5-0.2,4.4-1.2,5.6-3c0.9-1.2,1.2-2.5,1-3.7c-0.2-1.3-0.8-2.3-1.9-3c-1-0.7-2.1-1-3.3-0.9
				c-1.2,0.1-2.2,0.7-2.9,1.8c-0.7,0.9-0.9,1.9-0.8,2.8c0.1,1,0.6,1.8,1.3,2.4c-1.6,0.4-3,0.2-4.3-0.7c-1.1-0.8-1.7-1.8-1.9-2.9
				c-0.2-1.2,0.1-2.3,0.9-3.5c1-1.4,2.5-2.3,4.6-2.8c2.1-0.5,4.4-0.5,7-0.2l12.1,8.6l5.4-2.1l-23.2-16.5c1.8-2.1,3.6-4.2,5.4-6.3
				l19.3,16.3l5.6-1.7c0,0-21.7-18.3-21.7-18.3c4.2-5,8.8-9.5,13.4-14.2l4.7,5c-3.5-0.3-6.3,0.5-8.2,2.3c-1.2,1.2-1.9,2.4-1.9,3.7
				c-0.1,1.3,0.4,2.5,1.3,3.5c0.8,0.9,1.8,1.3,2.9,1.4c1.1,0.1,2-0.3,2.8-1.1c0.8-0.8,1.2-1.7,1.2-2.6c0-1-0.4-1.9-1.1-2.6
				c-0.4-0.4-0.8-0.7-1.4-0.8c0.1-0.1,0.2-0.2,0.3-0.3c0.6-0.5,1.5-0.8,2.9-0.9s2.8,0.2,4.4,0.8l2,2.1l6.1-0.2
				c-0.3-5-0.2-9.1,0.3-12.3c1,1.5,2.1,2.9,3.3,4.1c2.1,2.2,5,4.3,8.7,6.2c-3.9,0.1-6.8,1-8.7,2.8c-0.8,0.8-1.8,2-3,3.6
				c-1.2,1.6-2.2,2.8-3.2,3.7c-1.2,1.1-2.5,1.8-3.8,1.9c-1.3,0.1-2.5-0.4-3.5-1.4c-0.5-0.5-0.9-1-1.1-1.6l-2.3,0.9
				c0.6,1,1.3,1.9,2.1,2.7c1.9,2,4,3,6.4,3.2s4.6-0.6,6.4-2.4c1.2-1.1,2.5-2.7,3.9-4.8c1.5-2.1,2.7-3.6,3.6-4.4
				c1.7-1.6,3.5-2.6,5.5-2.9l1.4,0.6l2.1-1.1C360.8,270.3,357.8,268,355.4,265.5z M307.1,284.5c-1.7-1.1-3.5-1.6-5.3-1.4
				c-1.8,0.2-3.5,1.1-5,2.9c-0.4,0.5-0.9,1.1-1.5,2c-0.6,0.9-1.2,1.6-1.6,2.1c-0.6,0.7-1.1,1.1-1.5,1.2c-0.4,0.2-0.8,0.1-1.1-0.2
				c-0.5-0.4-0.5-1.1-0.2-2.2c0.3-1.1,1.1-2.4,2.4-3.9c2.8-3.3,6-5.5,9.5-6.7c3.5-1.1,6.5-0.9,8.9,0.7l-3.1,3.6
				C308.1,283.4,307.6,283.9,307.1,284.5z"/>
		</g>
		<path id="deb" class="st4" d="M535,207.8c-0.3-0.2-1.3-0.1-1.7-0.1c-0.6,0-1.3-0.1-1.9-0.2c-1.4-0.2-2.9-0.3-4.3-0.5
			c-2.9-0.3-5.8-0.6-8.6-0.8c-5.8-0.4-11.6-0.6-17.3-0.6c-4.7,0-9.4,0.2-14.1,0.4c-7.6,0.2-17.6-0.4-22.4,6.9
			c-2.3,3.5-3.1,7.2-2.6,11.4c0.6,4.1,2.3,7.6,5.1,10.4s5.8,3.9,8.8,3.5c1.6-0.2,2.8-0.8,3.7-1.8c0.9-1,1.2-2.1,1-3.3
			c-0.1-1.1-0.7-2-1.5-2.7c-0.9-0.7-1.9-1-3.1-0.8c-1.2,0.2-2.1,0.6-2.7,1.4c-0.6,0.8-0.8,1.7-0.7,2.7l0,0.2
			c-1.8-0.3-3.4-1.2-4.7-2.7c-1.3-1.5-2.1-3.3-2.4-5.5c-0.4-3.2,0.6-6.5,3-10.1c2.5-3.5,6-5.6,10.5-6.2c0.6-0.1,1.2-0.1,1.8-0.2
			l2.5-0.1L484,225l4.7,3.9c3.7-4.8,6.9-8.2,9.4-10.2c-0.2,1.7-0.3,3.4-0.3,5.1c0.1,4.2,1.4,8.8,3.9,13.6l2.3,0.6
			c-1.4-3.7-2.2-7.2-2.3-10.7c-0.1-3.9,0.8-8.2,2.8-12.9l-5.8-3c-3.7,2.6-7,5.7-10.1,9.2c0,0-0.3-11.5-0.3-11.6c0.1,0.4,8.6,0,9.4,0
			c2.6,0,5.2-0.1,7.9,0c5.7,0.1,11.4,0.3,17.1,0.9c1.2,0.1,2.3,0.2,3.5,0.3l-0.2,2l-16.6,8.5l2.3,5c6.6,1.3,10.8,4.7,12.7,10.1
			l4,3.1l2.6-28.3l5.7,0.5C536.7,211.1,535,207.8,535,207.8z M524.4,229.9c-2-3.2-4.5-5.8-7.6-7.7l8.7-4.6L524.4,229.9z"/>
		<g id="vidyalaya">
			<path class="st4" d="M701.6,348.1c0.3-0.9,0.3-1.8-0.1-2.7c-0.4-0.9-1.1-1.5-2-1.9c-0.9-0.3-1.8-0.3-2.7,0.1
				c-0.9,0.4-1.5,1.1-1.9,2c-0.3,0.9-0.3,1.8,0.1,2.7c0.4,0.9,1.1,1.5,2,1.9s1.8,0.3,2.7-0.1C700.6,349.6,701.3,349,701.6,348.1z"/>
			<path class="st4" d="M718.2,322.4c-0.4-0.7-0.7-1.3-1.1-2c-0.9-1.4-1.7-2.8-2.6-4.1c-2.6-4.2-5.3-8.3-7.7-12.6
				c-1.3-2.4-2.8-4.8-4.4-7.1c-0.9-1.2-1.8-2.3-2.7-3.4c-0.5-0.6-2.4-2-2.1-2.8c0.2-0.5,0.3-1,0.5-1.5s0.6-1.3,1.1-2.5
				c0.6-1.1,0.5-2.2-0.2-3.1l-6.8,5.2c0.5-1.4,0.7-2.5,0.7-3.3c-0.1-0.8-0.5-1.6-1.2-2.6l-0.9-1.2c0,0,0-0.1,0-0.1
				c-4.8-5.5-9.4-11-14.7-16c-3.2-3.2-6.5-6.3-9.7-9.4c-4.4-4.2-8.7-8.2-13.5-11.8c-5.3-3.9-10.6-7.9-15.8-11.8
				c-1.4-0.8-2.7-1.6-4.1-2.4l0-3.3c6.4-1.6,12.1-0.7,17.2,2.5c3.8,2.4,6.9,5.9,9.2,10.6l1.5-2.4c-3-5.9-6.6-10.2-10.9-12.9
				c-5.5-3.5-12.4-4.4-20.7-2.9l0.3,6.3l-4-2.5l0,3.7l2.1,1.3l-13.4,21.4l2.4,5.3l15.1-24.1c1.8,1.1,3.6,2.3,5.4,3.4l11.8,8.8
				l-1.2,1.6l-18.6-1.4l-0.6,5.4c4.9,4.5,6.8,9.6,5.6,15.3l1.8,4.8l17-22.8c2.3,1.9,4.7,3.7,6.9,5.8c-3.7,3.8-7.3,7.7-10.9,11.6
				l0.6,6.1c6-0.7,10.6-0.9,13.8-0.6c-1.4,1-2.6,2.2-3.8,3.4c-2.9,3.1-5.2,7.2-6.8,12.4l1.2,2.1c1.6-3.6,3.6-6.6,6-9.2
				c2.7-2.8,6.4-5.2,11.2-7.1l-2-6.2c-4.4-0.7-9-0.9-13.7-0.6c0,0,8-8.4,8-8.4c4,3.9,8.1,7.7,12,11.7c1.9,1.9,3.7,3.9,5.4,5.9
				c0.8,0.9,1.6,1.8,2.4,2.7c0.2,0.2,0.8,1.2,1.1,1.3c-3.5-0.7-6.5,0-9,2.2c-1.1,1-2.5,2.6-4.2,4.9c-1.7,2.3-3.2,4-4.5,5.1
				c-1.4,1.2-2.9,1.8-4.6,1.6c-1.6-0.2-2.9-0.8-3.9-1.9c-0.3-0.4-0.6-0.8-0.9-1.2l-1.5,3.3c1.6,1.8,3.9,2.9,7.1,3.3s6-0.5,8.5-2.7
				c1.3-1.1,2.8-2.9,4.6-5.3s3.2-4,4.1-4.8c1.4-1.2,2.9-1.8,4.4-1.9c1.5,0,2.8,0.6,3.8,1.7l1.3,1.5l-0.1,0.2l0.1,0.2
				c0.6,0.8,0.6,2.1,0,3.8c-0.7,1.7-1.5,2.9-2.5,3.7l-14.9,11.4l0.4,5.8l22.5-17.3c1.3,1.6,2.6,3.2,3.9,4.8l11.9,19.4l-6.3,3.9
				c1.7-3.2,2.1-5.6,1.2-7c-0.5-0.8-1.2-1.2-2.1-1.3c-1-0.1-2.1,0.2-3.5,0.8c1.7-3.8,1.8-6.8,0.4-9.1c-1.1-1.7-2.6-2.7-4.6-2.9
				c-2-0.2-3.9,0.3-5.7,1.4c-2.4,1.5-3.9,3.4-4.6,5.8c-0.7,2.4-0.5,4.5,0.7,6.3c0.8,1.3,1.8,2,2.9,2.3c1.2,0.3,2.3,0.1,3.3-0.5
				c0.9-0.5,1.5-1.3,1.8-2.4s0.2-2-0.4-3c-0.6-1-1.4-1.6-2.5-1.7c-1-0.2-2.1,0.1-3.2,0.9c-0.1-0.9,0.1-1.7,0.5-2.3
				c0.4-0.6,1-1.2,1.7-1.6c1.1-0.7,2.2-0.8,3.4-0.6c1.2,0.3,2.2,1,2.9,2.2c0.7,1.2,1.1,2.6,0.9,4.1c-0.1,1.5-0.7,3.2-1.7,5.1l0.6,2
				c0.7-0.5,1.2-0.9,1.5-1.1c1-0.6,1.9-0.9,2.6-1c0.7,0,1.3,0.2,1.6,0.7c0.4,0.7,0.4,1.6-0.1,2.9c-0.5,1.3-1.6,2.4-3.3,3.5l-9.3,5.8
				l-0.2,5.8c0,0,24.1-14.9,24.2-14.9c0.1-0.1,1.6,2.6,1.7,2.8c0.4,0.6,0.7,1.3,1,1.9c0.1,0.2,0.2,0.4,0.3,0.6
				c0.1,0.2,0.6,1.8,0.5,1.9c0,0-2.7,2.3-2.7,2.3c1.2,3,1.3,5.9,0.3,8.9l-8.7-3.9l-3.2,4.5c2.1,6.1,1.6,11.3-1.6,15.6l-0.8,5
				l26-11.6l2.3,5.2l2.1-3.1c-3.1-7.1-6.3-14.3-9.4-21.4C720.3,327.1,719.4,324.7,718.2,322.4z M637.1,261.2c0-3.8-0.8-7.3-2.5-10.5
				l9.9,0.6L637.1,261.2z M705.8,352.7c1.6-3.8,2.3-7.6,2.3-11.3l7.4,3.3c2.4-4.4,3.7-8.3,3.9-11.7l5.1,11.4L705.8,352.7z"/>
		</g>
	</g>
	<g id="motto">
		<path d="M403.9,336.4c-2.1-1.9-4.5-2.7-7.1-2.4c-2.6,0.2-4.8,1.4-6.6,3.4c-1.2,1.4-1.8,2.8-1.8,4.2c0,1.4,0.6,2.6,1.6,3.6
			c0.9,0.8,2,1.2,3.2,1.1c1.2-0.1,2.2-0.6,3-1.5c0.8-0.9,1.2-1.9,1.1-2.9c0-1.1-0.5-2-1.4-2.8c-0.5-0.4-1.1-0.7-1.7-0.9
			c0-0.1,0.1-0.2,0.2-0.4c0.8-0.9,1.8-1.3,3.1-1.3c1.3,0,2.4,0.4,3.5,1.3c1.2,1.1,1.8,2.5,1.9,4.2c0,1.7-0.6,3.3-2,4.9
			c-1.7,1.9-4,3-7,3.2c-3,0.2-6.7-0.6-11.1-2.4l-2,1.2c5.8,3.2,10.6,4.9,14.7,4.9c4,0.1,7.1-1.1,9.3-3.6c2.1-2.4,3-4.8,2.8-7.2
			C407.3,340.5,406.1,338.3,403.9,336.4z"/>
		<path d="M413.8,328c-2.1-1.7-3.4-2.9-4.1-3.7c-1-1.3-1.5-2.5-1.5-3.9c0-1.3,0.6-2.4,1.6-3.3l1.6-1.3c0,0-3.2-1-3.2-1
			c-0.3-0.1-2.4,1.9-2.7,2.2c-5.5,4.5-10.8,9.3-15.7,14.4c-4.8,5-9.8,10.1-13.9,15.7c-0.7,1-1.4,2.1-2.1,3.1
			c-0.5,0.8-0.9,1.6-1.4,2.4c-3.9,6.7-7.9,13.4-11.8,20.1c0,0,3.3-0.1,3.3-0.1l0.3-0.5l3,0.7c1-1.3,2-2.2,2.9-2.9
			c0.9-0.7,1.7-1.1,2.5-1.3c0.8-0.1,1.6,0,2.4,0.5c0.3,0.2,0.6,0.4,0.8,0.6c0.5,1.3,0.8,2.5,1.1,3.7c0.3,1.2,0.2,2.1-0.1,2.7
			c-0.3,0.6-1.3,0.7-2.7,0.3l-0.4,2.1c2.3,0.4,4.1,0.5,5.3,0.3c1.3-0.2,2.1-0.7,2.5-1.5c0.3-0.6,0.4-1.4,0.3-2.5
			c-0.1-1.1-0.7-3-1.7-5.8c-1-2.8-1.3-4.5-0.9-5.1c0.3-0.5,1-0.8,2.1-0.8c1.1,0,2.4,0.4,3.9,1.3l6.6,3.8l4.6-2.3l-21.6-12.4
			c2-2.9,3.9-5.7,6.3-8.2c3.3-3.5,6.6-7,9.9-10.5c4.7-5,9.5-9.9,14.8-14.3c-0.7,3.1-0.1,5.7,1.7,7.9c0.8,1,2.2,2.2,4.2,3.8
			c2,1.5,3.4,2.9,4.4,4c1.1,1.3,1.5,2.6,1.3,4c-0.2,1.4-0.8,2.5-1.8,3.4c-0.3,0.3-0.7,0.5-1.1,0.7l2.8,1.4c1.6-1.3,2.6-3.4,3-6.1
			c0.4-2.7-0.3-5.2-2.2-7.5C417.4,331,415.9,329.7,413.8,328z M380.2,361.5c-3.2,0-5.1,0.5-5.7,1.6c-0.4,0.6-0.2,1.8,0.4,3.7
			c-1.2-0.5-2.5-0.7-3.9-0.4c-1.4,0.2-3,1-4.7,2.3l6.5-11.4L380.2,361.5z"/>
		<path d="M452.3,314.2c-0.9-0.4-1.8-0.3-2.8,0.1c-1,0.4-1.6,1.1-1.9,1.9c-0.3,0.8-0.2,1.6,0.1,2.4l0.1,0.1
			c-1.6,0.2-3.1-0.2-4.6-1.1c-1.5-0.9-2.6-2.3-3.4-4c-1.2-2.5-1.2-5.6,0-9.2c1.2-3.6,3.6-6.2,7.2-7.9l1-0.5l-2.7-1.8l-1.8,0.8
			c-4.2,1.9-6.8,4.6-7.8,8.1c-1,3.5-0.8,6.9,0.7,10.2c1.5,3.3,3.8,5.8,6.9,7.4c3.1,1.6,5.8,1.8,8.3,0.7c1.3-0.6,2.2-1.4,2.6-2.4
			c0.5-1,0.5-2,0-3C453.8,315.2,453.2,314.5,452.3,314.2z"/>
		<path d="M503.3,284c-0.2-0.3-2.9,0.2-3.2,0.2c-2.6,0.2-5.3,0.3-7.9,0.5c-7,0.5-13.9,0.9-20.8,2c-0.3-0.3-0.7-0.6-1-0.9
			c-0.3-0.3-0.9-0.9-1.6-1.7c-0.7-0.8-1.6-1.1-2.6-0.8l3,11.3c-4.2-3.7-8.2-5-11.8-4c-2.6,0.7-4.5,2.2-5.7,4.4
			c-1.2,2.3-1.5,4.4-0.9,6.6c0.2,0.8,0.6,1.4,1.2,1.8c0.6,0.4,1.2,0.4,2,0.2c0.6-0.2,1.3-0.6,2-1.2c0.7-0.6,1.3-1,1.8-1.1
			c0.5-0.1,0.9-0.1,1.3,0.2c0.4,0.2,0.6,0.5,0.7,0.9c0.1,0.3-0.8,1.9-2.6,4.9l4.3,1.5l6.6-11.6c1.5,1.3,2.6,3,3.2,5.2
			c0,0,0.6,2.1,0.6,2.1l1.4,5.3c0,0,0.6,2.3,0.6,2.3l0.3,1.1c-2-1.3-4-1.7-6-1.1c-0.6,0.2-1.4,0.4-2.4,0.8c-1,0.3-1.9,0.6-2.7,0.8
			c-1.4,0.4-2.6,0.4-3.6,0c-1-0.4-1.7-1.1-2-2.2c-0.1-0.5-0.2-1-0.1-1.4l-2.1-0.3c0,0.9,0.2,1.8,0.4,2.7c0.6,2.3,1.8,3.9,3.5,4.9
			c1.7,1,3.6,1.2,5.7,0.6c0.9-0.2,2.2-0.7,3.7-1.3c1.6-0.6,2.7-1,3.5-1.2c1.2-0.3,2.1-0.3,2.8-0.1c0.7,0.3,1.3,0.7,1.7,1.4l3.2,0.7
			c0,0-1.1-3.9-1.1-3.9l-6.5-24c2.3-0.3,4.7-0.7,7-1l0.6,0l1.1,2.9c2.1,0.2,3.8,0.5,5.1,0.9c1.3,0.4,2.3,0.9,3,1.6
			c0.7,0.6,1.1,1.3,1.1,2.1c0,0.5-0.1,0.9-0.3,1.3c-0.8-0.2-1.6-0.3-2.5-0.2c-1.3,0.1-2.3,0.5-3.2,1.4c-0.9,0.8-1.3,1.9-1.2,3.1
			c0.1,1.2,0.5,2.1,1.4,2.9c0.8,0.7,1.8,1,3,1c1.2-0.1,2.2-0.5,3-1.2c0.8-0.7,1.5-1.7,1.9-2.9c1.3,0.6,2.4,1.6,3.4,3.1
			c1,1.5,1.8,3.3,2.3,5.5l3.9,2.2l-1.6-24.8l5-0.3C505.3,286.6,503.3,284,503.3,284z M461.3,300.4c-1.2-1.8-2.7-2.5-4.3-2
			c-0.6,0.2-1.1,0.4-1.4,0.6c0.1-1.1,0.4-2.2,1.1-3.2c0.7-1,1.6-1.6,2.9-2c1.6-0.4,3.3-0.1,5.1,0.9L461.3,300.4z M492.9,298.2
			c0.1-0.5,0.1-1,0-1.5c-0.1-1.7-0.9-3.4-2.4-4.9c-1.5-1.5-3.6-2.8-6.2-3.8l11.7-0.8l1,14.8C495.8,300.3,494.4,299,492.9,298.2z"/>
		<path d="M604,333.4c-0.3-1.6-1.1-2.9-2.3-4c-1.8-1.6-4-2.3-6.8-2.3c-2.7,0.1-4.9,1-6.4,2.7c-1.1,1.2-1.6,2.5-1.5,3.8
			c0.1,1.4,0.5,2.4,1.5,3.3c1,0.9,2,1.3,3,1.2c1-0.1,1.8-0.5,2.5-1.2c0.7-0.8,1-1.6,0.9-2.5c-0.1-0.9-0.5-1.7-1.3-2.4
			c-0.2-0.2-0.4-0.3-0.7-0.5c0.9-0.6,2.2-0.9,3.7-0.8c1.5,0.1,2.7,0.5,3.5,1.2c0.4,0.4,0.6,0.8,0.6,1.3c-0.1,0.5-0.4,1-1,1.7
			l-9.6,10.8c0.1-2.9-0.5-5-2-6.3c-0.5-0.5-1.2-1-2.1-1.6c-0.9-0.6-1.6-1.2-2.3-1.7c-1.1-1-1.6-2.1-1.6-3.3c0-1.3,0.6-2.6,1.8-3.9
			c0.6-0.7,1.3-1.3,2-1.7l-1-2.2c-1.2,0.8-2.3,1.8-3.3,2.9c-1.9,2.2-3,4.4-3.2,6.6c-0.2,2.2,0.5,4,2.2,5.5c0.7,0.6,1.7,1.3,2.9,2.1
			c1.2,0.8,2.2,1.5,2.9,2.1c1,0.9,1.6,1.8,1.8,2.6c0.2,0.9,0.1,1.8-0.3,2.8l1.3,3.5l13.6-15.3C603.9,336.4,604.3,335,604,333.4z"/>
		<path d="M618,364.7c2.3-1.7,3.5-3.8,3.8-6.4c0.3-2.6-0.3-5-1.9-7.1c-1.1-1.5-2.4-2.4-3.8-2.7c-1.4-0.3-2.7,0-3.8,0.8
			c-1,0.7-1.6,1.7-1.8,2.9c-0.2,1.2,0.1,2.3,0.8,3.3c0.7,0.9,1.6,1.5,2.6,1.7c1,0.2,2-0.1,3-0.8c0.5-0.4,0.9-0.9,1.3-1.5
			c0.1,0.1,0.2,0.2,0.3,0.3c0.7,0.9,0.9,2,0.7,3.3s-0.9,2.3-2,3.1c-1.3,1-2.8,1.3-4.5,1c-1.7-0.3-3.1-1.3-4.3-3
			c-1.5-2.1-2.1-4.6-1.7-7.6c0.4-3,1.9-6.4,4.7-10.3l-0.8-2.2c-4.3,5-7,9.4-7.9,13.3c-0.9,3.9-0.4,7.2,1.6,9.8
			c1.9,2.5,4,3.9,6.5,4.3C613.3,367.1,615.7,366.4,618,364.7z"/>
		<path d="M638.1,366.4c0.6-0.9,0.7-1.8,0.3-2.7l-6.7,3.5c0.7-1.1,1-2.1,1.1-2.7c0.2-2.2-1.6-4.1-2.8-5.7c-1.7-2.3-3.3-4.8-5-7.1
			c-3.2-4.6-6.5-9.3-9.7-14c-3.4-5.1-8.5-8.5-12.9-12.6c-2.5-2.3-4.9-4.6-7.5-6.8c-1.7-1.5-3.3-3.1-5.2-4.4c-2-1.4-4.2-2.6-6.3-3.9
			c-6-3.7-11.8-7.6-18.4-10.4l-0.4-2.8c5.3-2.1,10.4-2,15.2,0.2c3.6,1.7,6.7,4.4,9.2,8.2l1-2.3c-3.3-4.8-6.9-8.1-10.9-10
			c-5.2-2.4-11.3-2.4-18.3-0.1l1,5.4l-3.6-1.6c-1.5-0.7-3.1-1.5-4.6-2.2c-0.1-0.4-0.2-0.8-0.4-1.3c-0.1-0.5-0.3-1.2-0.4-2.3
			c-0.2-1.1-0.8-1.8-1.7-2.1l-3.3,11.2c-1.7-5.3-4.3-8.6-7.9-9.6c-2.6-0.8-5-0.5-7.2,0.8c-2.2,1.3-3.6,3-4.2,5.1
			c-0.2,0.8-0.2,1.6,0.1,2.2c0.3,0.6,0.8,1,1.5,1.2c0.6,0.2,1.4,0.2,2.4,0c1-0.2,1.7-0.2,2.1,0c0.5,0.1,0.8,0.4,1,0.8
			c0.2,0.4,0.2,0.8,0.1,1.1c-0.1,0.3-1.7,1.2-4.8,2.8l2.9,3.5l11.7-6.4c0.7,1.9,0.7,3.9,0,6.1l-2.9,9.6l3.3,3.9l7.1-23.8
			c1.8,0.9,3.6,1.8,5.5,2.7l2,0.9l-9.2,20.1l2.7,4.3c0,0,10.4-22.6,10.4-22.6c0.2-0.5,15.1,8.5,16.6,9.3l-0.9,1.5l-16.3,0.2
			l-0.1,4.8c4.6,3.6,6.7,7.9,6.1,12.9l1.9,4c0,0,13-21.2,13-21.2c-0.1,0.1,5.8,4,6.3,4.4c1.9,1.4,3.5,3.3,5.2,4.9c2,1.9,4,3.8,6,5.6
			c3.5,3.1,7.2,6.2,10.2,9.8c1.6,1.9,2.8,4,4.3,6.1c1.5,2.1,3,4.3,4.5,6.5c1.9,2.7,3.8,5.5,5.7,8.2c0.9,1.4,2,2.8,2.8,4.2
			c0.7,1.2,0.3,2.3-0.4,3.5c-0.8,1.4-1.7,2.3-2.7,2.8l-14.5,7.6l-0.5,5.1l22-11.5l2.3,4.4l1.6-2.8l-1.6-3.1c0.2-0.4,0.4-0.8,0.7-1.2
			C637,367.9,637.5,367.3,638.1,366.4z M538,300.5c-0.1-2.2-1-3.5-2.6-4c-0.6-0.2-1.1-0.2-1.5-0.2c0.7-0.9,1.5-1.6,2.6-2.1
			c1.1-0.5,2.3-0.5,3.5-0.2c1.6,0.5,2.9,1.6,3.9,3.4L538,300.5z M572,326.5c-0.3-3.3-1.3-6.3-3-9l8.6-0.2L572,326.5z"/>
	</g>
	<g id="estd">
		<path d="M418.5,552.9c-1.7-1.3-3.4-1.9-4.9-1.8c-1.6,0.1-2.7,0.6-3.5,1.6c-0.6,0.9-0.9,1.8-0.7,2.8c0.1,1,0.6,1.8,1.5,2.4
			c1,0.7,2,1,3,0.8c1.1-0.2,1.9-0.8,2.7-1.7c0.3-0.4,0.5-0.8,0.6-1.3c0.5,0.1,0.9,0.4,1.4,0.7c0.8,0.6,1.3,1.4,1.6,2.3
			c0.2,0.9,0.1,1.8-0.5,2.6c-0.9,1.2-2.3,1.7-4.2,1.7c-1.9,0-3.8-0.8-5.8-2.2c-1.7-1.3-3.1-2.8-4.3-4.5l-0.5,6.8
			c4.4,4.2,7.6,9.6,9.6,16.2l1.8-2.4c-1.2-3.8-2.6-7.1-4-9.7c1.8,0.5,3.5,0.5,5.2,0.2c1.7-0.4,3.1-1.2,4.1-2.6
			c1.2-1.6,1.6-3.6,1-5.8C422.1,556.5,420.7,554.5,418.5,552.9z"/>
		<path d="M480.6,569.3c0.8,0.1,1.5,0.1,2.3,0.1c8.5,0.2,16.9,1.4,25.4,2l-1.5-2.9l-28.8-2.1l-1.7-0.5c-0.1-0.4-0.3-0.8-0.4-1.3
			c-0.1-0.5-0.3-1.2-0.5-2.3c0-0.2-0.1-0.3-0.1-0.4l0.6-1.2c-3.3-4.8-7-8.1-11-9.9c-5.2-2.3-11.3-2.3-18.3,0l1,5.4
			c0,0-3.7-1.7-3.7-1.7l-1.4-0.7c0-0.4-0.1-0.9-0.1-1.4c0-0.5,0-1.3,0-2.4c0-1.1-0.4-1.9-1.3-2.4c0,0-3.6,6.6-3.6,6.6
			c-0.2-2.5-1.2-4.3-3.7-5.2c0,0.2,0,0.3,0,0.5c0-0.7-5.1-3.8-6-4.4c-2.1-1.5-4.1-3-6.2-4.6c-2.6-1.9-5.2-4-7.8-5.8l-0.2,3.3
			l6.1,4.5c-0.9,0.3-1.9,0.7-3.1,1.1c-1.2,0.5-2,0.7-2.4,0.8c-0.5,0-0.8,0-1-0.1c-0.4-0.3-0.6-1-0.3-2.2l-2-0.1
			c-0.3,1.6-0.3,2.9-0.1,4c0.2,1.1,0.5,1.8,1,2.2c0.5,0.4,1.2,0.5,2,0.4c0.8-0.1,1.8-0.4,2.9-0.9c1.1-0.5,2.1-0.8,2.8-1.1
			c-0.3,1.6-0.3,3.1,0.1,4.6c0.4,1.5,1.3,2.7,2.6,3.7c1.2,0.9,2.5,1.3,3.7,1c1.2-0.2,2.2-0.8,3-1.8c0.8-1,1.1-2.4,0.9-4.1l5.4,4
			l0-0.1c0.1,0.4,0.2,0.9,0.3,1.5c0.1,1.6-0.2,2.8-0.7,3.8l-7.9,14.4l2.4,4.5l11.9-21.8l4.4,2.4l0-0.3l0.6,0.3l-9,20.2l2.8,4.3
			l10.2-22.7l4.5,2l-0.5-3.2l-3.5-1.6l-0.4-2.8c5.3-2.1,10.4-2.1,15.2,0c3,1.3,5.6,3.4,7.9,6.2l-3,10.4c-1.7-5.3-4.4-8.5-8-9.6
			c-2.6-0.8-5-0.5-7.2,0.8c-2.2,1.3-3.6,3-4.2,5.1c-0.2,0.8-0.2,1.6,0.1,2.2c0.3,0.6,0.8,1,1.6,1.2c0.6,0.2,1.4,0.2,2.4,0
			c0.9-0.2,1.7-0.2,2.1,0c0.5,0.1,0.8,0.4,1,0.8c0.2,0.4,0.2,0.8,0.1,1.1c-0.1,0.3-1.7,1.2-4.8,2.8l2.9,3.5l11.7-6.5
			c0.7,1.9,0.7,3.9,0.1,6.1l-2.8,9.6c0,0,3.3,3.9,3.3,3.9c1.2-4.1,2.4-8.2,3.6-12.3c0.8-2.7,1.6-5.5,2.4-8.2
			c0.2-0.6,0.3-2.1,0.7-2.6c0.7-0.8,2.1-0.5,3.1-0.4C479.4,569.2,480,569.3,480.6,569.3z M427.3,550.6c-0.4,0.5-0.9,0.8-1.5,0.9
			c-0.6,0.1-1.3-0.1-1.9-0.6c-0.8-0.6-1.4-1.5-1.6-2.7c-0.2-1.2-0.1-2,0.4-2.7c0.1-0.2,0.3-0.3,0.5-0.3c0.2,0,0.4,0.1,0.6,0.2l4,3
			C427.9,549.3,427.7,550,427.3,550.6z M460.7,572.4c-0.1-2.2-1-3.5-2.7-4c-0.6-0.2-1.1-0.2-1.5-0.2c0.6-0.9,1.5-1.7,2.6-2.1
			c1.1-0.5,2.2-0.5,3.5-0.2c1.6,0.5,2.9,1.6,3.9,3.4L460.7,572.4z"/>
		<path d="M493.5,572c-1.9-0.1-3.4,0.2-4.5,1.1c-1.1,0.9-1.8,2-1.9,3.5c-0.1,1.2,0.2,2.3,1,3.2c0.8,0.9,1.8,1.4,3,1.5
			c1.2,0.1,2.2-0.2,3-0.9c0.8-0.7,1.3-1.6,1.4-2.8c0-0.6-0.1-1.3-0.3-1.9c0.1,0,0.3-0.1,0.4,0c1.1,0.1,2.1,0.6,2.9,1.6
			c0.8,1,1.2,2.2,1,3.6c-0.1,1.6-0.8,3-2.2,4c-1.3,1-3,1.5-5.1,1.3c-2.6-0.2-4.8-1.4-6.8-3.6c-2-2.2-3.6-5.6-4.8-10.3l-2.2-0.9
			c0.9,6.5,2.6,11.4,5,14.7c2.4,3.2,5.2,5,8.5,5.2c3.1,0.2,5.6-0.5,7.5-2.1c1.9-1.7,2.9-3.9,3.1-6.8c0.2-2.8-0.6-5.2-2.4-7.1
			C498.4,573.3,496.2,572.2,493.5,572z"/>
		
			<rect x="506.9" y="582.9" transform="matrix(0.9964 -8.473276e-02 8.473276e-02 0.9964 -47.7266 45.5498)" width="11.7" height="4.2"/>
		<path d="M536.8,576.8c-1.3-1.3-3-2.7-5.3-4c-2.3-1.3-3.8-2.3-4.5-3c-0.7-0.7-1.2-1.3-1.3-1.9c-0.1-0.3-0.1-0.7,0-1
			c-0.5-0.4-1-0.7-1.6-0.9c-0.6-0.2-1.2-0.3-1.9-0.1c-0.9,0.2-1.5,0.6-2,1.3c-0.4,0.7-0.6,1.5-0.4,2.3c0.2,1.1,0.8,2,1.9,2.8
			c1,0.8,3,1.9,5.9,3.2c3,1.3,5.1,2.5,6.5,3.6c1.4,1.1,2.2,2.4,2.5,3.9c0.3,1.3,0.1,2.5-0.4,3.4c-0.6,1-1.4,1.6-2.6,1.8
			c-0.3,0.1-0.6,0.1-1,0.1c-0.3-1.3-1-2.3-2.1-3.1c-1.1-0.8-2.4-1-3.8-0.7c-1.1,0.2-1.9,0.7-2.4,1.5c-0.5,0.8-0.7,1.6-0.5,2.5
			c0.3,1.3,1.2,2.3,2.6,3c1.5,0.6,3.3,0.7,5.4,0.3c2.6-0.6,4.6-1.8,6-3.8c1.4-1.9,1.8-4.2,1.3-6.8
			C538.8,579.6,538,578.2,536.8,576.8z"/>
		<path d="M559,567c-1.9-1-4.3-1.7-7.3-2.2c-3-0.4-4.8-0.8-5.4-1.1c-0.6-0.3-1.2-0.8-1.7-1.4c-0.5-0.6-1.1-1-1.7-1.3
			c-0.6-0.2-1.3-0.2-2.1,0.1c-0.7,0.3-1.2,0.8-1.5,1.5s-0.3,1.5,0,2.3c0.4,1.1,1.3,1.9,2.6,2.5c1.3,0.6,3.7,1,7.3,1.2
			c3.6,0.2,6.2,0.6,7.9,1.3c1.7,0.7,2.8,1.8,3.4,3.3c0.7,1.7,0.3,3.2-1,4.6c-0.9-2.3-2.3-3.8-4.2-4.8c-1.9-0.9-3.9-0.9-6-0.1
			c-1.7,0.7-3,1.9-3.8,3.6c-0.8,1.7-0.9,3.5-0.2,5.2c0.5,1.4,1.4,2.4,2.5,3c1.1,0.6,2.2,0.7,3.2,0.3c0.9-0.4,1.5-0.9,1.9-1.6
			c0.4-0.7,0.4-1.5,0.1-2.4c-0.3-0.8-0.8-1.4-1.5-1.7c-0.7-0.3-1.4-0.3-2.1,0c-0.3,0.1-0.6,0.3-0.9,0.5c-0.2-0.2-0.4-0.4-0.5-0.7
			c-0.2-0.6-0.2-1.2,0-1.8s0.7-1,1.4-1.3c1-0.4,2-0.2,3.2,0.5c1.1,0.7,2.1,2,2.8,3.8c0.5,1.2,0.8,2.7,0.9,4.2c2.9-1.1,4.9-3,6.1-5.6
			c1.2-2.6,1.3-5.1,0.3-7.6C562.2,569.4,560.9,568,559,567z"/>
		<path class="st0" d="M580.4,554.7c-2-0.7-4.5-1-7.6-0.9c-3,0.1-4.9,0-5.5-0.1c-0.7-0.2-1.3-0.5-1.9-1.1s-1.3-0.8-1.9-1
			c-0.7-0.1-1.3,0-2,0.4c-0.6,0.4-1,1-1.2,1.7c-0.2,0.8,0,1.5,0.4,2.2c0.6,1,1.6,1.7,3,2c1.4,0.4,3.9,0.3,7.4-0.1
			c3.6-0.4,6.3-0.4,8-0.1c1.8,0.4,3.1,1.3,4,2.7c0.9,1.5,0.9,3.1-0.1,4.7c-1.3-2.1-2.9-3.4-4.9-4c-2-0.6-4-0.3-5.9,0.9
			c-1.6,1-2.6,2.4-3.1,4.2c-0.5,1.8-0.3,3.6,0.7,5.1c0.8,1.3,1.8,2.1,2.9,2.5c1.2,0.4,2.2,0.3,3.2-0.3c0.8-0.5,1.4-1.2,1.6-1.9
			c0.3-0.8,0.1-1.6-0.4-2.4c-0.5-0.8-1.1-1.2-1.8-1.4c-0.7-0.2-1.4,0-2.1,0.4c-0.2,0.1-0.5,0.4-0.8,0.7c-0.2-0.2-0.4-0.4-0.6-0.7
			c-0.3-0.6-0.4-1.1-0.3-1.8c0.1-0.6,0.5-1.2,1.2-1.5c0.9-0.5,2-0.6,3.2-0.1c1.2,0.5,2.4,1.6,3.4,3.2c0.7,1.1,1.2,2.5,1.6,4
			c2.6-1.6,4.3-3.8,5-6.5c0.7-2.8,0.4-5.3-1-7.6C583.9,556.6,582.4,555.4,580.4,554.7z"/>
		<path d="M579.2,556.2c-1.7-0.7-3.8-1.3-6.4-1.5c-2.6-0.3-4.4-0.6-5.3-0.9c-0.9-0.3-1.6-0.7-2-1.3c-0.2-0.3-0.3-0.6-0.4-0.9
			c-0.6-0.2-1.2-0.2-1.8-0.2c-0.6,0-1.2,0.3-1.8,0.6c-0.7,0.5-1.2,1.2-1.3,2c-0.1,0.8,0.1,1.6,0.6,2.3c0.6,0.9,1.6,1.5,2.8,1.8
			c1.2,0.3,3.5,0.5,6.7,0.6c3.2,0,5.7,0.3,7.4,0.8c1.7,0.5,3,1.3,3.8,2.6c0.8,1.1,1.1,2.2,1,3.3c-0.1,1.1-0.7,2-1.7,2.7
			c-0.2,0.2-0.5,0.3-0.9,0.5c-0.8-1.1-1.8-1.7-3.1-2c-1.3-0.3-2.6,0-3.7,0.8c-0.9,0.6-1.4,1.4-1.6,2.3c-0.2,0.9,0,1.7,0.5,2.5
			c0.8,1.1,2,1.7,3.6,1.7c1.6,0,3.3-0.6,5.1-1.9c2.2-1.6,3.5-3.5,4.1-5.9c0.5-2.3,0-4.6-1.5-6.8C582.2,558,580.9,557,579.2,556.2z"
			/>
		<path d="M609.6,548.7c-0.2-0.3-0.5-0.5-0.8-0.7c-0.5,0.4-1,0.6-1.6,0.4c-0.5-0.1-1.2-0.6-1.9-1.4l-6.1-7c-1.8-2.1-4.1-3.5-6.9-4
			c-2.7-0.5-5-0.1-6.6,1.4c-1.6,1.4-2.5,3.5-2.6,6.3c-0.1,2.8,0.4,4.9,1.6,6.2c0.7,0.8,1.9,1.3,3.7,1.6c1.8,0.3,3.4-0.2,4.8-1.5
			c0.4-0.4,0.9-0.8,1.5-1.4c0.6-0.5,1.1-1,1.5-1.3c0.9-0.8,1.8-1.2,2.7-1.4c0.4,0.4,1,1.2,1.8,2.3c0.9,1.1,1.7,2.1,2.4,3
			c1.2,1.4,2.3,2.2,3.4,2.5c1.1,0.3,2.1,0.1,2.9-0.6c0.7-0.6,1-1.3,1-2.1C610.5,550.2,610.2,549.4,609.6,548.7z M593.4,545.3
			l-2.5,2.2c-0.4,0.4-0.8,0.6-1.2,0.6c-0.3,0-0.6-0.1-0.9-0.4c-0.6-0.7-1-2.1-1-4c0-1.9,0.3-3.2,1-3.8c0.5-0.4,1.6-0.4,3.2,0.1
			c1.6,0.5,3,1.5,4.3,2.9l0.7,0.8C595.7,543.8,594.5,544.3,593.4,545.3z"/>
	</g>
	<g id="jalp">
		<path d="M469.9,757.3c-8.5-1.2-16.9-2.5-25.4-3.6c-9.7-1.3-19.3-4.3-28.8-6.6c-1.5-0.4-3-0.7-4.5-1.1l1.1,3.1l8,1.9
			c-1.8,1.5-2.9,3.3-3.4,5.3c-0.4,1.8-0.2,3.5,0.6,5c0.9,1.5,2,2.5,3.4,2.8c0.9,0.2,1.8,0.3,2.6,0.1c0.8-0.1,1.6-0.4,2.4-0.7
			c0.2,0.6,0.2,1.1,0.1,1.6c-0.2,1-0.8,1.8-1.8,2.3c-0.9,0.5-2.2,0.6-3.8,0.2c-2.2-0.5-3.9-2.1-5.1-4.6c-1.2-2.5-1.3-6-0.3-10.3
			l-2-1.2c-0.1,0.4-0.3,0.9-0.4,1.3c-1.3,5.2-1.2,9.6,0.2,13.2c1.4,3.6,3.6,5.7,6.7,6.5c2.3,0.6,4.2,0.3,5.8-0.8
			c1.5-1.1,2.6-2.6,3.1-4.7c0.6-2.7-0.1-5.3-2.1-8.1c-2.4,1.4-4.2,2-5.5,1.7c-0.6-0.1-1-0.4-1.3-0.9c-0.3-0.4-0.3-0.9-0.2-1.5
			c0.2-0.8,0.8-1.6,1.7-2.4c0.9-0.8,2-1.5,3.1-2.1c1.1,1.9,2.3,3.5,3.7,4.7c1.3,1.2,2.9,2,4.6,2.5c0.3,0.1,0.7,0.1,1,0.2
			c-1.6,2.2-2.7,4.5-3.3,7c-0.7,2.9-0.7,6.3-0.1,10.1l1.8,1.1c-0.1-2.8,0.2-5.4,0.8-7.9c0.9-3.6,2.7-6.5,5.6-8.7l-2.3-5.1
			c-1.2,0.1-2.4,0-3.5-0.2c-1.3-0.3-2.6-0.8-3.8-1.6c-1.2-0.7-2.2-1.7-3.1-2.9l0.6-0.3c0.5-0.2,2.5,0.6,3.1,0.7
			c1.2,0.3,2.4,0.6,3.5,0.8c2.3,0.5,4.6,1,6.9,1.5c4.5,0.9,9,1.5,13.5,2.2c2.9,0.4,5.9,0.8,8.8,1.3l-0.9,6.4c-1.2-3-2.5-4.5-4-4.8
			c-0.8-0.1-1.5,0.1-2.1,0.7c-0.6,0.6-1.1,1.5-1.4,2.8c-1.6-3.3-3.5-5.1-5.8-5.4c-1.7-0.3-3.2,0.2-4.5,1.5c-1.2,1.2-2,2.8-2.3,4.7
			c-0.3,2.4,0.1,4.5,1.3,6.3c1.2,1.8,2.7,2.8,4.6,3.1c1.3,0.2,2.4,0,3.2-0.7c0.8-0.6,1.3-1.5,1.5-2.5c0.1-0.9-0.1-1.7-0.6-2.5
			c-0.5-0.8-1.3-1.3-2.2-1.4c-1-0.1-1.9,0.1-2.5,0.7c-0.7,0.6-1.1,1.5-1.2,2.6c-0.6-0.5-1.1-1-1.3-1.6c-0.2-0.6-0.3-1.3-0.1-2.1
			c0.2-1.1,0.7-1.9,1.5-2.6c0.8-0.7,1.9-0.9,3.1-0.7c1.2,0.2,2.3,0.7,3.3,1.7s1.8,2.3,2.5,4l1.7,0.8c0-0.7,0.1-1.3,0.1-1.6
			c0.1-1,0.4-1.8,0.8-2.3c0.4-0.5,0.8-0.7,1.4-0.7c0.7,0.1,1.3,0.7,1.9,1.7c0.6,1.1,0.8,2.4,0.5,4.2l-1.4,9.5l3.8,3.4l3.6-24.6
			l4.9,0.7L469.9,757.3z"/>
		<path d="M520.9,778.5c2.1-0.9,3.7-2.1,5-3.7c1.2-1.5,1.8-3.3,1.7-5.1c-0.1-2.1-1.1-3.9-3-5.3c-1.9-1.4-4.2-2.1-6.9-1.9l-0.9-1.8
			l15.3-0.9l-1.9-2.7l-4.3,0.2c0.1-0.5,0.1-1,0.1-1.5c-0.1-1.5-0.8-2.8-2.1-3.9c-1.3-1.1-3.1-1.6-5.4-1.5c-1.2,0.1-2.3,0.2-3.2,0.3
			c-0.9,0.1-1.9,0.2-2.8,0.2c-1.6,0.1-2.8-0.1-3.4-0.6s-1-1.2-1-1.9c0-0.4,0-0.8,0.1-1.2l-2.1-0.6c-0.1,0.6-0.1,1.1-0.1,1.7
			c0.1,2,0.9,3.7,2.3,4.9s3.4,1.8,5.8,1.6c1-0.1,1.9-0.1,2.9-0.2c1-0.1,1.9-0.2,2.9-0.2c1.2-0.1,2.2,0.1,2.8,0.5s0.9,0.9,0.9,1.5
			c0,0.4,0,0.8-0.2,1.2c-4.7,0.3-9.5,0.8-14.2,0.8c-1.5,0-3,0-4.4,0c-0.2-0.4-0.5-0.7-0.7-1.1c-0.2-0.4-0.6-1.1-1.1-2.1
			s-1.3-1.5-2.3-1.5c0,0,0.1,7.5,0.1,7.5c-0.8-1.2-1.6-2.3-3-2.6c-0.8-0.2-1.7-0.1-2.6-0.1c-1.5,0.1-1.8,0.2-2.4-1.2
			c-0.2-0.4-0.5-1.1-1-2.2c-0.4-1-1.2-1.6-2.2-1.6l-0.7,11.7c-2.9-4.8-6.2-7.3-9.9-7.6c-2.7-0.2-4.9,0.6-6.8,2.4
			c-1.8,1.8-2.8,3.7-2.9,5.9c-0.1,0.9,0.1,1.6,0.6,2.1c0.4,0.5,1,0.8,1.8,0.8c0.6,0,1.4-0.1,2.3-0.5c0.9-0.4,1.6-0.5,2.1-0.5
			c0.5,0,0.9,0.2,1.1,0.6c0.3,0.3,0.4,0.7,0.4,1.1c0,0.3-1.4,1.6-4,3.8l3.6,2.7l9.9-9c1.1,1.7,1.5,3.6,1.4,5.9l-0.6,10l4.1,3
			l1.4-24.8l4.6,0.3c0.5,0.3,1,0.8,1.5,1.6c0.8,1.3,1.3,2.6,1.3,3.6l0.2,16.4l4.3,2.7c0,0-0.3-24.8-0.3-24.9c0,0.2,4.4,0,4.7,0
			c1,0,2-0.1,3-0.1c0.3,0,0.7-0.1,1,0c0.3,0.1,1.6,1.9,1.6,1.9c-1.5,0.5-2.6,1.2-3.4,2.1c-0.8,1-1.1,2-1.1,3.1
			c0.1,1.1,0.5,1.9,1.2,2.5c0.7,0.6,1.6,0.9,2.6,0.9c1.2-0.1,2.3-0.6,3.1-1.5c0.8-1,1.2-2.3,1.1-4c0-0.2,0-0.5-0.1-0.7
			c0.2,0,0.4-0.1,0.7-0.1c1.2-0.1,2.3,0.2,3.2,0.9c0.9,0.6,1.4,1.5,1.4,2.6c0.1,1.6-0.7,3-2.3,4.4s-3.8,2-6.5,2.2
			c-1.5,0.1-3.2-0.1-5.1-0.6l4,5.5c4.5,0.2,9.9,3,16.1,8.1l-0.2-3C527.2,782.8,524.2,780.5,520.9,778.5z M479.3,768.3
			c-0.6-2.1-1.8-3.2-3.5-3.3c-0.6,0-1.1,0-1.5,0.2c0.4-1.1,1.1-2,2-2.7c0.9-0.7,2.1-1,3.4-1c1.7,0.1,3.2,0.9,4.6,2.5L479.3,768.3z"
			/>
		<path d="M556.8,767.7c0.8-0.8,1.3-1.6,1.6-2.3c0.3-0.8,0.4-1.6,0.2-2.4c-0.2-1.1-0.6-2.1-1.4-3c-0.8-0.9-2-1.9-3.7-3
			c-1.7-1.1-2.9-2-3.8-2.6c-0.3,1.5-0.7,3-1.3,4.3c-2.6-2.4-5.2-3.4-7.9-3c-2.1,0.3-3.7,1.2-4.7,2.7c-1.1,1.5-1.5,3.1-1.2,4.8
			c0.2,1.1,0.5,1.9,1,2.4c0.5,0.5,1.2,0.8,1.9,0.7c0.3,0,0.6-0.2,0.9-0.3c0.3-0.2,0.8-0.6,1.6-1.3c0.8-0.7,1.4-1.1,1.9-1.1
			c0.4-0.1,0.8,0,1,0.2c0.3,0.2,0.4,0.5,0.5,0.9c0.1,1-1.4,2.7-4.5,5.1l5.1,1.4c0.8-1,1.4-2,1.8-3c0.5-1.1,0.6-2.1,0.5-3.1
			c-0.2-1.1-0.7-2-1.8-2.9c-1-0.8-2.2-1.2-3.4-1c-0.6,0.1-1.3,0.4-2.1,0.9c-0.1-0.7,0.1-1.3,0.6-1.9c0.5-0.5,1.2-0.9,2.1-1
			c1.4-0.2,2.8,0.1,4.2,1c1.4,0.8,2.9,2.2,4.4,4.1c0.8-1.8,1.5-3.4,1.9-4.8c1.4,1.1,2.2,2.2,2.3,3.4c0.2,1.2-0.2,2.4-1,3.5
			c-0.9-0.2-1.9-0.2-2.9-0.1c-1.5,0.2-2.6,0.8-3.5,1.8c-0.8,1-1.2,2.1-1,3.2c0.1,1,0.6,1.8,1.4,2.4s1.7,0.8,2.7,0.6
			c1-0.1,1.8-0.6,2.3-1.3c0.5-0.7,0.7-1.5,0.6-2.4c-0.1-0.5-0.3-0.9-0.6-1.3c0.1-0.1,0.3-0.1,0.5-0.1c0.7-0.1,1.3,0.1,1.9,0.6
			c0.6,0.5,0.9,1.1,1.1,2c0.2,1.2-0.3,2.4-1.4,3.6c-1.1,1.2-2.9,1.9-5.3,2.3c-3.2,0.5-6.5-0.6-9.8-3.3c-3.3-2.6-5.6-6.5-6.9-11.7
			l-2.3-0.4c1.5,7.3,4.1,12.7,7.8,16c3.7,3.4,7.7,4.8,12.1,4.1c3.3-0.5,5.7-1.7,7.2-3.7c1.5-2,2.1-4.1,1.8-6.5
			C559.1,770.3,558.2,768.8,556.8,767.7z"/>
		<path d="M590.2,750.9c-0.5,2.4-1.5,4.6-2.9,6.6c-0.4,0.5-1.2,1.1-1.7,0.7c-0.2-0.2-0.3-0.4-0.4-0.7c-0.7-2.5-1.4-5-2-7.5
			c5.2-1.4,10.3-2.8,15.5-4.2c-0.8-0.7-1.6-1.5-2.4-2.2c-9.5,2.7-19.1,5.2-28.7,7.5c-0.4,0.1-0.7,0.2-1.1,0.1c-1-0.1-1.8-1.1-2.3-2
			c2.4-4,6.3-7,10.8-8.4s9.4-1.1,13.6,0.7c0.3-0.8-0.1-1.7-0.7-2.3c-0.6-0.6-1.5-0.9-2.3-1.1c-1.6-0.5-3.3-0.8-5-1
			c-8.6-0.8-17.4,3.7-21.8,11.2c1.3,1.2,2.6,2.5,3.9,3.7c-1.3,0.3-2.6,0.6-3.9,0.9c0.5,0.7,1.1,1.4,1.8,1.9s1.8,0.5,2.5,0.1
			c1.4,6.8,2.9,13.7,4.3,20.5c0.1,0.3,0.2,0.7,0.4,1c0.3,0.3,0.6,0.5,1,0.6c1.2,0.4,2.4,0.9,3.6,1.3c-1.7-8.1-3.4-16.2-5.1-24.3
			c0.9-0.2,11.7-2.9,11.7-2.8c0.8,1.7,1,3.7,1.4,5.5c0.4,1.9,1.2,3.8,2.7,4.8c1.7,1.1,3.9,1.1,5.7,0.2c1.8-0.9,3.2-2.5,4.1-4.3
			c1.4,1,1.7,3,1,4.6s-2.1,2.7-3.6,3.4c-1.6,0.8-3.4,1.2-5.1,1.1c-2.8-0.2-5.3-1.8-7.2-3.9c-1.9-2.1-3.2-4.6-4.5-7
			c-0.8,0-1.6-0.1-2.4-0.1c1.2,2.9,2.4,5.9,4.2,8.5s4,5,6.9,6.3c2.8,1.3,6.2,1.5,9.1,0.3c2.9-1.2,5.2-3.8,5.8-6.8
			c0.5-2.6-0.1-5.3-1.5-7.5C594.5,754,592.5,752.2,590.2,750.9z"/>
		<path d="M587.4,775.1c-0.7-0.4-1.5-0.5-2.4-0.3c-0.8,0.2-1.5,0.7-1.9,1.4c-0.4,0.7-0.5,1.5-0.3,2.4c0.2,0.8,0.7,1.5,1.4,1.9
			c0.7,0.4,1.5,0.5,2.4,0.3c0.8-0.2,1.5-0.7,1.9-1.4c0.4-0.7,0.5-1.5,0.3-2.4C588.6,776.2,588.2,775.6,587.4,775.1z"/>
	</g>
</g>
</svg>
